<svg width="329" height="124" viewBox="0 0 329 124" fill="none" xmlns="http://www.w3.org/2000/svg">
<g clip-path="url(#clip0_804_7261)">
<path d="M92.07 0.290042C92.07 0.290042 7.4 0.100042 5.21 0.0100421C3.03 -0.0799579 2.12 0.290042 0.569996 1.11004C-0.980004 1.93004 1.12 3.48004 1.12 3.48004C11.32 10.21 10.13 18.31 10.13 18.31L9.95 66V118.33C9.95 121.97 10.5 123.7 10.5 123.7C25.98 112.69 41.48 104.75 43.46 103.68C67.68 90.57 97.09 84.48 97.09 84.48C112.38 79.5701 113.02 64.91 113.02 64.91C113.02 64.91 113.2 30.69 113.2 24.78C113.2 18.87 112.02 16.04 112.02 16.04C105.09 -0.349957 92.07 0.290042 92.07 0.290042ZM63.19 76.74C63.19 76.74 62.37 77.56 59.48 77.74V16.58C59.48 16.58 62.9 16.22 63.19 17.4C63.48 18.58 63.19 76.74 63.19 76.74Z" fill="#221F1F"/>
<path d="M322.81 64.08C322.81 64.08 322.17 57.89 316.62 52.89C316.62 52.89 323.45 49.52 323.45 38.24V18.31C323.45 18.31 321.62 0.649984 301.68 0.0999842C297.87 -1.57654e-05 192.51 0.289984 169.47 0.359984L169.27 60.12C169.27 60.12 167.7 61.65 166.05 60.12V0.369984C165.06 0.369984 164.53 0.369984 164.53 0.369984H102.62C102.62 0.369984 114.91 9.19999 115.82 18.02L115.73 57.52C115.73 57.52 117.64 75.63 137.67 78.54C137.67 78.54 143.5 78.18 150.78 77.72C158.06 77.26 173.27 76.35 191.39 78.27C191.39 78.27 203.68 81.09 213.51 69.17C213.51 69.17 217.88 64.35 218.42 56.79L218.6 15.2L220.06 15.16C220.06 15.16 221.5 14.58 221.59 15.58C221.68 16.58 221.51 58.9 221.51 58.9C221.51 58.9 220.69 66.96 215.66 71.99L207.45 78.9C207.45 78.9 244.5 86 258.53 91.01C258.53 91.01 281.56 97.84 306.05 110.85C306.05 110.85 313.79 115.58 318.8 109.85C318.8 109.85 322.53 107.12 322.71 102.39C322.89 97.66 322.8 64.08 322.8 64.08H322.81ZM270.06 16.65C270.06 16.65 273.29 16.53 273.29 17.71V37.76C273.29 37.76 271.83 38.59 270.06 38.59V16.65ZM269.76 78.33L270.06 55.21L273 55.68L273.34 78.56C272.16 79.15 269.76 78.32 269.76 78.32V78.33Z" fill="#221F1F"/>
<path d="M327.92 111.86C327.71 111.39 327.43 110.99 327.08 110.64C326.73 110.3 326.32 110.03 325.85 109.83C325.38 109.63 324.88 109.54 324.35 109.54C323.82 109.54 323.32 109.64 322.85 109.83C322.38 110.03 321.97 110.3 321.61 110.64C321.26 110.98 320.98 111.39 320.77 111.86C320.56 112.33 320.46 112.83 320.46 113.38C320.46 113.93 320.56 114.45 320.77 114.92C320.98 115.39 321.26 115.8 321.61 116.15C321.96 116.5 322.38 116.77 322.85 116.96C323.32 117.15 323.82 117.25 324.35 117.25C324.88 117.25 325.38 117.15 325.85 116.96C326.32 116.77 326.73 116.5 327.08 116.15C327.43 115.8 327.71 115.39 327.92 114.92C328.13 114.45 328.23 113.93 328.23 113.38C328.23 112.83 328.13 112.33 327.92 111.86ZM327.29 114.69C327.13 115.09 326.9 115.44 326.62 115.74C326.33 116.04 326 116.27 325.61 116.44C325.22 116.61 324.81 116.69 324.36 116.69C323.91 116.69 323.49 116.61 323.1 116.44C322.71 116.27 322.37 116.04 322.09 115.74C321.8 115.44 321.58 115.1 321.42 114.69C321.26 114.29 321.18 113.85 321.18 113.38C321.18 112.91 321.26 112.49 321.42 112.09C321.58 111.69 321.81 111.35 322.09 111.05C322.38 110.76 322.71 110.53 323.1 110.36C323.49 110.19 323.91 110.11 324.36 110.11C324.81 110.11 325.22 110.19 325.61 110.36C326 110.53 326.33 110.76 326.62 111.05C326.91 111.34 327.13 111.69 327.29 112.09C327.45 112.49 327.53 112.92 327.53 113.38C327.53 113.84 327.45 114.29 327.29 114.69Z" fill="black"/>
<path d="M325.84 113.32C326.07 113.13 326.18 112.83 326.18 112.43C326.18 112 326.05 111.67 325.79 111.46C325.53 111.25 325.14 111.14 324.6 111.14H322.86V115.65H323.56V113.71H324.3L325.53 115.65H326.28L324.99 113.66C325.33 113.63 325.61 113.51 325.84 113.33V113.32ZM324.29 113.14H323.56V111.71H324.49C324.61 111.71 324.73 111.71 324.85 111.74C324.97 111.76 325.08 111.79 325.17 111.84C325.26 111.89 325.34 111.96 325.4 112.05C325.46 112.14 325.49 112.26 325.49 112.41C325.49 112.59 325.46 112.73 325.39 112.83C325.32 112.93 325.24 113 325.13 113.05C325.02 113.1 324.89 113.13 324.75 113.14C324.61 113.15 324.46 113.16 324.3 113.16L324.29 113.14Z" fill="black"/>
</g>
<defs>
<clipPath id="clip0_804_7261">
<rect width="328.23" height="123.69" fill="white"/>
</clipPath>
</defs>
</svg>
